<svg xmlns="http://www.w3.org/2000/svg" xmlns:xlink="http://www.w3.org/1999/xlink" version="1.1" style="enable-background:new 0 0 611.997 611.997;" xml:space="preserve" width="611.997" height="611.997"><rect id="backgroundrect" width="100%" height="100%" x="0" y="0" fill="none" stroke="none"/>
















<g class="currentLayer" style=""><title>Layer 1</title><g id="svg_1" class="selected" fill-opacity="1" fill="#ef6e2c">
	<path d="M596.003,276.944H464.81l-67.861-159.866c14.366-9.311,23.913-25.452,23.913-43.808c0-28.783-23.417-52.197-52.2-52.197   s-52.197,23.414-52.197,52.197c0,27.778,21.827,50.494,49.221,52.053l64.361,151.624H181.949l64.387-151.688   c26.837-2.134,48.034-24.614,48.034-51.992c0-28.783-23.417-52.197-52.197-52.197s-52.197,23.414-52.197,52.197   c0,18.743,9.963,35.162,24.838,44.371L147.19,276.944H15.997C7.164,276.944,0,284.104,0,292.941v49.765   c0,8.837,7.164,15.997,15.997,15.997h13.156l23.302,190.309c2.928,23.894,23.286,41.913,47.356,41.913h412.374   c24.073,0,44.431-18.02,47.356-41.913l23.302-190.309h13.156c8.834,0,15.997-7.16,15.997-15.997v-49.765   C612,284.104,604.84,276.944,596.003,276.944z M348.464,73.27c0-11.137,9.064-20.202,20.202-20.202   c11.137,0,20.205,9.064,20.205,20.202c0,11.141-9.064,20.205-20.205,20.205S348.464,84.411,348.464,73.27z M242.17,53.065   c11.141,0,20.202,9.064,20.202,20.202c0,11.141-9.064,20.205-20.202,20.205c-11.137,0-20.202-9.064-20.202-20.205   C221.968,62.129,231.029,53.065,242.17,53.065z" id="svg_2" fill="#ef6e2c"/>
</g><g id="svg_3">
</g><g id="svg_4">
</g><g id="svg_5">
</g><g id="svg_6">
</g><g id="svg_7">
</g><g id="svg_8">
</g><g id="svg_9">
</g><g id="svg_10">
</g><g id="svg_11">
</g><g id="svg_12">
</g><g id="svg_13">
</g><g id="svg_14">
</g><g id="svg_15">
</g><g id="svg_16">
</g><g id="svg_17">
</g></g></svg>